# xmcd CD database file
#
# Track frame offsets:
#	150
#	18797
#	31515
#	43210
#	54967
#	69797
#	83977
#	95982
#	110125
#	121727
#	136600
#	151730
#	165975
#	178767
#	192732
#	205442
#
# Disc length: 2927 seconds
#
# Revision: 0
# Processed by: cddbd v1.5.1PL0 Copyright (c) Steve Scherf et al.
# Submitted via: CDex 1.51
#
DISCID=cd0b6d10
DTITLE=Varous Artists - The Best Of Dutch Country
DYEAR=1995
DGENRE=Country
TTITLE0=Ruud Hermans and Jony de Boer - Up Where We Belong
TTITLE1=Major Dundee Band - The Longer The Distance
TTITLE2=Ben Steneker - Some Broken Hearts Never Mend
TTITLE3=Freddy Casby - Kilometer-eater
TTITLE4=The Tielman Brothers - Blue Bayou
TTITLE5=The Walkers - Oh, Lonesome Me
TTITLE6=Hank Burns - Can't Help Falling In Love
TTITLE7=Ben Steneker and Autora - If I Needed You
TTITLE8=Henry St. John - Boodle-am Shake
TTITLE9=Freddy Casby - Distant Island
TTITLE10=Ruud Hermans and Nathali Shelar - Two Of A Kind
TTITLE11=Major Dundee Band - Red River Rose
TTITLE12=Ben Steneker - The French Song
TTITLE13=Sweet Reaction - Daddy
TTITLE14=Tulsa - You're My Best Friend
TTITLE15=The Walkers - I Wasn't Born In Tennessee
EXTD=YEAR: 1995
EXTT0=
EXTT1=
EXTT2=
EXTT3=
EXTT4=
EXTT5=
EXTT6=
EXTT7=
EXTT8=
EXTT9=
EXTT10=
EXTT11=
EXTT12=
EXTT13=
EXTT14=
EXTT15=
PLAYORDER=
